<?xml version="1.0" standalone="no"?>
<!DOCTYPE svg PUBLIC "-//W3C//DTD SVG 20010904//EN"
 "http://www.w3.org/TR/2001/REC-SVG-20010904/DTD/svg10.dtd">
<svg version="1.0" xmlns="http://www.w3.org/2000/svg"
 width="192.000000pt" height="192.000000pt" viewBox="0 0 192.000000 192.000000"
 preserveAspectRatio="xMidYMid meet">
<metadata>
Created by potrace 1.11, written by Peter Selinger 2001-2013
</metadata>
<g transform="translate(0.000000,192.000000) scale(0.100000,-0.100000)"
fill="#000000" stroke="none">
<path d="M1419 1560 l-36 -5 1 -505 1 -505 253 -2 252 -3 0 60 0 60 -190 0
-190 0 0 43 c-1 23 -1 225 -1 448 l0 407 -27 3 c-15 2 -43 2 -63 -1z"/>
<path d="M203 1523 c-4 -21 -6 -41 -5 -45 1 -3 -5 -46 -13 -95 -7 -48 -16
-110 -19 -138 -4 -27 -8 -61 -11 -75 -2 -14 -6 -41 -9 -60 -3 -19 -12 -84 -21
-145 -9 -60 -18 -123 -19 -140 -2 -16 -7 -49 -11 -73 -9 -53 -12 -82 -21 -155
l-6 -58 58 3 58 3 7 40 c4 22 10 69 14 105 4 36 9 74 11 85 2 11 6 40 9 65 3
25 7 54 9 65 2 11 7 45 10 75 4 30 8 64 10 75 7 40 20 150 18 158 -1 4 1 7 6
7 4 0 83 -153 175 -340 138 -280 171 -340 187 -340 17 0 51 61 190 343 93 188
170 338 170 332 1 -5 3 -19 4 -30 2 -11 6 -45 10 -75 4 -30 10 -73 13 -95 3
-22 7 -49 8 -60 2 -11 6 -40 9 -65 4 -25 11 -79 17 -120 5 -41 12 -88 14 -105
3 -16 7 -51 11 -77 l7 -48 58 0 c67 0 67 0 50 101 -6 30 -12 72 -15 94 -3 22
-12 90 -21 150 -9 61 -18 126 -21 145 -3 19 -7 46 -9 60 -3 14 -7 45 -10 70
-3 25 -8 56 -10 70 -2 14 -7 45 -10 70 -3 25 -13 90 -21 144 -7 55 -14 103
-14 108 0 4 -8 8 -18 8 -13 0 -64 -95 -212 -395 -106 -217 -196 -395 -200
-395 -3 0 -94 178 -201 395 -203 413 -220 438 -236 358z"/>
</g>
</svg>
